<svg xmlns="http://www.w3.org/2000/svg" viewBox="0 0 480 640">
<defs>
    <radialGradient id="spot" cx="50%" cy="38%" r="75%"><stop offset="0%" stop-color="#1d5c5a"/><stop offset="100%" stop-color="#0e2f2e"/></radialGradient>
  </defs>
  <rect width="480" height="640" fill="url(#spot)"/>
  <g opacity=".08" fill="#ffffff"><circle cx="20" cy="20" r="2.4"/><circle cx="54" cy="20" r="2.4"/><circle cx="88" cy="20" r="2.4"/><circle cx="122" cy="20" r="2.4"/><circle cx="156" cy="20" r="2.4"/><circle cx="190" cy="20" r="2.4"/><circle cx="224" cy="20" r="2.4"/><circle cx="258" cy="20" r="2.4"/><circle cx="292" cy="20" r="2.4"/><circle cx="326" cy="20" r="2.4"/><circle cx="360" cy="20" r="2.4"/><circle cx="394" cy="20" r="2.4"/><circle cx="428" cy="20" r="2.4"/><circle cx="462" cy="20" r="2.4"/><circle cx="37" cy="54" r="2.4"/><circle cx="71" cy="54" r="2.4"/><circle cx="105" cy="54" r="2.4"/><circle cx="139" cy="54" r="2.4"/><circle cx="173" cy="54" r="2.4"/><circle cx="207" cy="54" r="2.4"/><circle cx="241" cy="54" r="2.4"/><circle cx="275" cy="54" r="2.4"/><circle cx="309" cy="54" r="2.4"/><circle cx="343" cy="54" r="2.4"/><circle cx="377" cy="54" r="2.4"/><circle cx="411" cy="54" r="2.4"/><circle cx="445" cy="54" r="2.4"/><circle cx="479" cy="54" r="2.4"/><circle cx="20" cy="88" r="2.4"/><circle cx="54" cy="88" r="2.4"/><circle cx="88" cy="88" r="2.4"/><circle cx="122" cy="88" r="2.4"/><circle cx="156" cy="88" r="2.4"/><circle cx="190" cy="88" r="2.4"/><circle cx="224" cy="88" r="2.4"/><circle cx="258" cy="88" r="2.4"/><circle cx="292" cy="88" r="2.4"/><circle cx="326" cy="88" r="2.4"/><circle cx="360" cy="88" r="2.4"/><circle cx="394" cy="88" r="2.4"/><circle cx="428" cy="88" r="2.4"/><circle cx="462" cy="88" r="2.4"/><circle cx="37" cy="122" r="2.4"/><circle cx="71" cy="122" r="2.4"/><circle cx="105" cy="122" r="2.4"/><circle cx="139" cy="122" r="2.4"/><circle cx="173" cy="122" r="2.4"/><circle cx="207" cy="122" r="2.4"/><circle cx="241" cy="122" r="2.4"/><circle cx="275" cy="122" r="2.4"/><circle cx="309" cy="122" r="2.4"/><circle cx="343" cy="122" r="2.4"/><circle cx="377" cy="122" r="2.4"/><circle cx="411" cy="122" r="2.4"/><circle cx="445" cy="122" r="2.4"/><circle cx="479" cy="122" r="2.4"/><circle cx="19.999999999999993" cy="156" r="2.4"/><circle cx="53.99999999999999" cy="156" r="2.4"/><circle cx="88" cy="156" r="2.4"/><circle cx="122" cy="156" r="2.4"/><circle cx="156" cy="156" r="2.4"/><circle cx="190" cy="156" r="2.4"/><circle cx="224" cy="156" r="2.4"/><circle cx="258" cy="156" r="2.4"/><circle cx="292" cy="156" r="2.4"/><circle cx="326" cy="156" r="2.4"/><circle cx="360" cy="156" r="2.4"/><circle cx="394" cy="156" r="2.4"/><circle cx="428" cy="156" r="2.4"/><circle cx="462" cy="156" r="2.4"/><circle cx="36.99999999999999" cy="190" r="2.4"/><circle cx="71" cy="190" r="2.4"/><circle cx="105" cy="190" r="2.4"/><circle cx="139" cy="190" r="2.4"/><circle cx="173" cy="190" r="2.4"/><circle cx="207" cy="190" r="2.4"/><circle cx="241" cy="190" r="2.4"/><circle cx="275" cy="190" r="2.4"/><circle cx="309" cy="190" r="2.4"/><circle cx="343" cy="190" r="2.4"/><circle cx="377" cy="190" r="2.4"/><circle cx="411" cy="190" r="2.4"/><circle cx="445" cy="190" r="2.4"/><circle cx="479" cy="190" r="2.4"/><circle cx="19.999999999999993" cy="224" r="2.4"/><circle cx="53.99999999999999" cy="224" r="2.4"/><circle cx="88" cy="224" r="2.4"/><circle cx="122" cy="224" r="2.4"/><circle cx="156" cy="224" r="2.4"/><circle cx="190" cy="224" r="2.4"/><circle cx="224" cy="224" r="2.4"/><circle cx="258" cy="224" r="2.4"/><circle cx="292" cy="224" r="2.4"/><circle cx="326" cy="224" r="2.4"/><circle cx="360" cy="224" r="2.4"/><circle cx="394" cy="224" r="2.4"/><circle cx="428" cy="224" r="2.4"/><circle cx="462" cy="224" r="2.4"/><circle cx="36.99999999999999" cy="258" r="2.4"/><circle cx="71" cy="258" r="2.4"/><circle cx="105" cy="258" r="2.4"/><circle cx="139" cy="258" r="2.4"/><circle cx="173" cy="258" r="2.4"/><circle cx="207" cy="258" r="2.4"/><circle cx="241" cy="258" r="2.4"/><circle cx="275" cy="258" r="2.4"/><circle cx="309" cy="258" r="2.4"/><circle cx="343" cy="258" r="2.4"/><circle cx="377" cy="258" r="2.4"/><circle cx="411" cy="258" r="2.4"/><circle cx="445" cy="258" r="2.4"/><circle cx="479" cy="258" r="2.4"/><circle cx="19.999999999999993" cy="292" r="2.4"/><circle cx="53.99999999999999" cy="292" r="2.4"/><circle cx="88" cy="292" r="2.4"/><circle cx="122" cy="292" r="2.4"/><circle cx="156" cy="292" r="2.4"/><circle cx="190" cy="292" r="2.4"/><circle cx="224" cy="292" r="2.4"/><circle cx="258" cy="292" r="2.4"/><circle cx="292" cy="292" r="2.4"/><circle cx="326" cy="292" r="2.4"/><circle cx="360" cy="292" r="2.4"/><circle cx="394" cy="292" r="2.4"/><circle cx="428" cy="292" r="2.4"/><circle cx="462" cy="292" r="2.4"/><circle cx="36.99999999999999" cy="326" r="2.4"/><circle cx="71" cy="326" r="2.4"/><circle cx="105" cy="326" r="2.4"/><circle cx="139" cy="326" r="2.4"/><circle cx="173" cy="326" r="2.4"/><circle cx="207" cy="326" r="2.4"/><circle cx="241" cy="326" r="2.4"/><circle cx="275" cy="326" r="2.4"/><circle cx="309" cy="326" r="2.4"/><circle cx="343" cy="326" r="2.4"/><circle cx="377" cy="326" r="2.4"/><circle cx="411" cy="326" r="2.4"/><circle cx="445" cy="326" r="2.4"/><circle cx="479" cy="326" r="2.4"/><circle cx="19.999999999999993" cy="360" r="2.4"/><circle cx="53.99999999999999" cy="360" r="2.4"/><circle cx="88" cy="360" r="2.4"/><circle cx="122" cy="360" r="2.4"/><circle cx="156" cy="360" r="2.4"/><circle cx="190" cy="360" r="2.4"/><circle cx="224" cy="360" r="2.4"/><circle cx="258" cy="360" r="2.4"/><circle cx="292" cy="360" r="2.4"/><circle cx="326" cy="360" r="2.4"/><circle cx="360" cy="360" r="2.4"/><circle cx="394" cy="360" r="2.4"/><circle cx="428" cy="360" r="2.4"/><circle cx="462" cy="360" r="2.4"/><circle cx="36.99999999999999" cy="394" r="2.4"/><circle cx="71" cy="394" r="2.4"/><circle cx="105" cy="394" r="2.4"/><circle cx="139" cy="394" r="2.4"/><circle cx="173" cy="394" r="2.4"/><circle cx="207" cy="394" r="2.4"/><circle cx="241" cy="394" r="2.4"/><circle cx="275" cy="394" r="2.4"/><circle cx="309" cy="394" r="2.4"/><circle cx="343" cy="394" r="2.4"/><circle cx="377" cy="394" r="2.4"/><circle cx="411" cy="394" r="2.4"/><circle cx="445" cy="394" r="2.4"/><circle cx="479" cy="394" r="2.4"/><circle cx="19.999999999999993" cy="428" r="2.4"/><circle cx="53.99999999999999" cy="428" r="2.4"/><circle cx="88" cy="428" r="2.4"/><circle cx="122" cy="428" r="2.4"/><circle cx="156" cy="428" r="2.4"/><circle cx="190" cy="428" r="2.4"/><circle cx="224" cy="428" r="2.4"/><circle cx="258" cy="428" r="2.4"/><circle cx="292" cy="428" r="2.4"/><circle cx="326" cy="428" r="2.4"/><circle cx="360" cy="428" r="2.4"/><circle cx="394" cy="428" r="2.4"/><circle cx="428" cy="428" r="2.4"/><circle cx="462" cy="428" r="2.4"/><circle cx="36.99999999999999" cy="462" r="2.4"/><circle cx="71" cy="462" r="2.4"/><circle cx="105" cy="462" r="2.4"/><circle cx="139" cy="462" r="2.4"/><circle cx="173" cy="462" r="2.4"/><circle cx="207" cy="462" r="2.4"/><circle cx="241" cy="462" r="2.4"/><circle cx="275" cy="462" r="2.4"/><circle cx="309" cy="462" r="2.4"/><circle cx="343" cy="462" r="2.4"/><circle cx="377" cy="462" r="2.4"/><circle cx="411" cy="462" r="2.4"/><circle cx="445" cy="462" r="2.4"/><circle cx="479" cy="462" r="2.4"/><circle cx="19.999999999999993" cy="496" r="2.4"/><circle cx="53.99999999999999" cy="496" r="2.4"/><circle cx="88" cy="496" r="2.4"/><circle cx="122" cy="496" r="2.4"/><circle cx="156" cy="496" r="2.4"/><circle cx="190" cy="496" r="2.4"/><circle cx="224" cy="496" r="2.4"/><circle cx="258" cy="496" r="2.4"/><circle cx="292" cy="496" r="2.4"/><circle cx="326" cy="496" r="2.4"/><circle cx="360" cy="496" r="2.4"/><circle cx="394" cy="496" r="2.4"/><circle cx="428" cy="496" r="2.4"/><circle cx="462" cy="496" r="2.4"/><circle cx="36.99999999999999" cy="530" r="2.4"/><circle cx="71" cy="530" r="2.4"/><circle cx="105" cy="530" r="2.4"/><circle cx="139" cy="530" r="2.4"/><circle cx="173" cy="530" r="2.4"/><circle cx="207" cy="530" r="2.4"/><circle cx="241" cy="530" r="2.4"/><circle cx="275" cy="530" r="2.4"/><circle cx="309" cy="530" r="2.4"/><circle cx="343" cy="530" r="2.4"/><circle cx="377" cy="530" r="2.4"/><circle cx="411" cy="530" r="2.4"/><circle cx="445" cy="530" r="2.4"/><circle cx="479" cy="530" r="2.4"/><circle cx="20.000000000000025" cy="564" r="2.4"/><circle cx="54.00000000000003" cy="564" r="2.4"/><circle cx="88.00000000000003" cy="564" r="2.4"/><circle cx="122.00000000000003" cy="564" r="2.4"/><circle cx="156.00000000000003" cy="564" r="2.4"/><circle cx="190.00000000000003" cy="564" r="2.4"/><circle cx="224.00000000000003" cy="564" r="2.4"/><circle cx="258" cy="564" r="2.4"/><circle cx="292" cy="564" r="2.4"/><circle cx="326" cy="564" r="2.4"/><circle cx="360" cy="564" r="2.4"/><circle cx="394" cy="564" r="2.4"/><circle cx="428" cy="564" r="2.4"/><circle cx="462" cy="564" r="2.4"/><circle cx="37.00000000000003" cy="598" r="2.4"/><circle cx="71.00000000000003" cy="598" r="2.4"/><circle cx="105.00000000000003" cy="598" r="2.4"/><circle cx="139.00000000000003" cy="598" r="2.4"/><circle cx="173.00000000000003" cy="598" r="2.4"/><circle cx="207.00000000000003" cy="598" r="2.4"/><circle cx="241.00000000000003" cy="598" r="2.4"/><circle cx="275" cy="598" r="2.4"/><circle cx="309" cy="598" r="2.4"/><circle cx="343" cy="598" r="2.4"/><circle cx="377" cy="598" r="2.4"/><circle cx="411" cy="598" r="2.4"/><circle cx="445" cy="598" r="2.4"/><circle cx="479" cy="598" r="2.4"/><circle cx="20.000000000000025" cy="632" r="2.4"/><circle cx="54.00000000000003" cy="632" r="2.4"/><circle cx="88.00000000000003" cy="632" r="2.4"/><circle cx="122.00000000000003" cy="632" r="2.4"/><circle cx="156.00000000000003" cy="632" r="2.4"/><circle cx="190.00000000000003" cy="632" r="2.4"/><circle cx="224.00000000000003" cy="632" r="2.4"/><circle cx="258" cy="632" r="2.4"/><circle cx="292" cy="632" r="2.4"/><circle cx="326" cy="632" r="2.4"/><circle cx="360" cy="632" r="2.4"/><circle cx="394" cy="632" r="2.4"/><circle cx="428" cy="632" r="2.4"/><circle cx="462" cy="632" r="2.4"/></g>
  <rect width="480" height="640" fill="none" stroke="#e8d9a0" stroke-opacity=".35" stroke-width="10"/>
  <rect x="14" y="14" width="452" height="612" fill="none" stroke="#e8d9a0" stroke-opacity=".25" stroke-width="2"/>

  <path d="M96 640 C100 512 150 444 240 444 C330 444 380 512 384 640 Z" fill="#2f568c"/>
  <path d="M96 640 C100 512 150 444 240 444 C246 444 240 452 240 452 C164 470 122 540 118 640 Z" fill="#223e65" opacity=".55"/>
  <path d="M150 640 L150 520 Q240 545 330 520 L330 640 Z" fill="none" stroke="#223e65" stroke-width="5" opacity=".6"/>
  <path d="M208 442 L272 442 L268 470 Q240 486 212 470 Z" fill="#f2c79c"/>
  <rect x="214" y="404" width="52" height="52" rx="16" fill="#f2c79c"/>
  <text x="240" y="600" text-anchor="middle" font-family="Arial Black, Arial, sans-serif" font-size="30" font-weight="900" fill="#f5efdd" opacity=".85" letter-spacing="4">LCG</text>
<path d="M148 640 q-16 -120 34 -168 q26 40 8 92 q-8 42 -12 76 Z" fill="#f5efdd"/>
    <path d="M162 486 q14 40 4 84" fill="none" stroke="#d8cfae" stroke-width="6"/>
    <path d="M330 512 q46 -36 34 -132" fill="none" stroke="#2f568c" stroke-width="50" stroke-linecap="round"/>
    <circle cx="362" cy="368" r="23" fill="#f2c79c"/>
    <g transform="translate(360 248) rotate(14)">
    <rect x="-9" y="52" width="18" height="66" rx="9" fill="#c99a5b"/>
    <rect x="-9" y="52" width="9" height="66" rx="7" fill="#a87c42"/>
    <ellipse cx="0" cy="0" rx="56" ry="62" fill="#c0392b"/>
    <ellipse cx="0" cy="0" rx="56" ry="62" fill="none" stroke="#8e2a20" stroke-width="7"/>
    <ellipse cx="-16" cy="-16" rx="22" ry="26" fill="#fff" opacity=".18"/>
    <ellipse cx="0" cy="118" rx="16" ry="14" fill="#f2c79c"/>
    <path d="M-14 112 q14 -10 28 0" fill="none" stroke="#a98b6d" stroke-width="4"/>
  </g>

  <ellipse cx="162" cy="258" rx="15" ry="20" fill="#f2c79c"/>
  <ellipse cx="318" cy="258" rx="15" ry="20" fill="#f2c79c"/>
  <ellipse cx="240" cy="252" rx="82" ry="94" fill="#f2c79c"/>
  <path d="M158 252 a82 94 0 0 0 82 94 a82 94 0 0 1 -82 -94" fill="#c6a380" opacity=".28"/>
  <ellipse cx="205" cy="290" rx="12" ry="8" fill="#e2574a" opacity=".22"/>
  <ellipse cx="275" cy="290" rx="12" ry="8" fill="#e2574a" opacity=".22"/>
<path d="M240 252 q10 22 0 30 q-7 6 -14 1" fill="none" stroke="#91775e" stroke-width="5" stroke-linecap="round"/>
<ellipse cx="206" cy="246" rx="14" ry="17" fill="#fff"/><circle cx="206" cy="249" r="7" fill="#241d18"/><circle cx="208.6" cy="246" r="2.4" fill="#fff"/>
      <ellipse cx="274" cy="246" rx="14" ry="17" fill="#fff"/><circle cx="274" cy="249" r="7" fill="#241d18"/><circle cx="276.6" cy="246" r="2.4" fill="#fff"/>
      <path d="M188 222 q18 -12 36 -4" fill="none" stroke="#241d18" stroke-width="8" stroke-linecap="round"/>
      <path d="M292 222 q-18 -12 -36 -4" fill="none" stroke="#241d18" stroke-width="8" stroke-linecap="round"/>
<ellipse cx="240" cy="318" rx="30" ry="24" fill="#3d201a"/>
      <path d="M214 310 q26 -12 52 0 l-4 8 q-22 -9 -44 0 Z" fill="#fff"/>
      <ellipse cx="240" cy="330" rx="14" ry="8" fill="#c4453a"/>

<path d="M158 240 q-8 -90 82 -90 q90 0 82 90 q-6 -54 -82 -54 q-76 0 -82 54" fill="#d9a441"/>
      <path d="M150 250 q-14 60 8 108 q10 -18 20 -20 q-12 -44 -4 -84 Z" fill="#d9a441"/>
      <path d="M330 250 q14 60 -8 108 q-10 -18 -20 -20 q12 -44 4 -84 Z" fill="#d9a441"/>
<path d="M156 214 q84 -30 168 0 l0 30 q-84 -26 -168 0 Z" fill="#c0392b"/>
  
  <path d="M156 214 q84 -30 168 0 l0 8 q-84 -28 -168 0 Z" fill="#fff" opacity=".22"/>


<rect x="366" y="384" width="52" height="20" rx="10" fill="#c0392b"/>
</svg>