<svg xmlns="http://www.w3.org/2000/svg" viewBox="0 0 480 640">
<defs>
    <radialGradient id="spot" cx="50%" cy="38%" r="75%"><stop offset="0%" stop-color="#2e5c33"/><stop offset="100%" stop-color="#142b17"/></radialGradient>
  </defs>
  <rect width="480" height="640" fill="url(#spot)"/>
  <path d="M240 300 L936 227 L936 373 Z" fill="#ffffff" opacity=".14"/><path d="M240 300 L879 585 L806 711 Z" fill="#ffffff" opacity=".14"/><path d="M240 300 L651 866 L525 939 Z" fill="#ffffff" opacity=".14"/><path d="M240 300 L313 996 L167 996 Z" fill="#ffffff" opacity=".14"/><path d="M240 300 L-45 939 L-171 866 Z" fill="#ffffff" opacity=".14"/><path d="M240 300 L-326 711 L-399 585 Z" fill="#ffffff" opacity=".14"/><path d="M240 300 L-456 373 L-456 227 Z" fill="#ffffff" opacity=".14"/><path d="M240 300 L-399 15 L-326 -111 Z" fill="#ffffff" opacity=".14"/><path d="M240 300 L-171 -266 L-45 -339 Z" fill="#ffffff" opacity=".14"/><path d="M240 300 L167 -396 L313 -396 Z" fill="#ffffff" opacity=".14"/><path d="M240 300 L525 -339 L651 -266 Z" fill="#ffffff" opacity=".14"/><path d="M240 300 L806 -111 L879 15 Z" fill="#ffffff" opacity=".14"/>
  <rect width="480" height="640" fill="none" stroke="#e8d9a0" stroke-opacity=".35" stroke-width="10"/>
  <rect x="14" y="14" width="452" height="612" fill="none" stroke="#e8d9a0" stroke-opacity=".25" stroke-width="2"/>

  <path d="M96 640 C100 512 150 444 240 444 C330 444 380 512 384 640 Z" fill="#37424f"/>
  <path d="M96 640 C100 512 150 444 240 444 C246 444 240 452 240 452 C164 470 122 540 118 640 Z" fill="#283039" opacity=".55"/>
  <path d="M150 640 L150 520 Q240 545 330 520 L330 640 Z" fill="none" stroke="#283039" stroke-width="5" opacity=".6"/>
  <path d="M208 442 L272 442 L268 470 Q240 486 212 470 Z" fill="#f2c79c"/>
  <rect x="214" y="404" width="52" height="52" rx="16" fill="#f2c79c"/>
  <text x="240" y="600" text-anchor="middle" font-family="Arial Black, Arial, sans-serif" font-size="30" font-weight="900" fill="#f5efdd" opacity=".85" letter-spacing="4">LCG</text>


  <ellipse cx="162" cy="258" rx="15" ry="20" fill="#f2c79c"/>
  <ellipse cx="318" cy="258" rx="15" ry="20" fill="#f2c79c"/>
  <ellipse cx="240" cy="252" rx="82" ry="94" fill="#f2c79c"/>
  <path d="M158 252 a82 94 0 0 0 82 94 a82 94 0 0 1 -82 -94" fill="#c6a380" opacity=".28"/>
  <ellipse cx="205" cy="290" rx="12" ry="8" fill="#e2574a" opacity=".22"/>
  <ellipse cx="275" cy="290" rx="12" ry="8" fill="#e2574a" opacity=".22"/>
<path d="M240 252 q10 22 0 30 q-7 6 -14 1" fill="none" stroke="#91775e" stroke-width="5" stroke-linecap="round"/>
<ellipse cx="206" cy="246" rx="14" ry="17" fill="#fff"/><circle cx="206" cy="249" r="7" fill="#241d18"/><circle cx="208.6" cy="246" r="2.4" fill="#fff"/>
      <ellipse cx="274" cy="246" rx="14" ry="17" fill="#fff"/><circle cx="274" cy="249" r="7" fill="#241d18"/><circle cx="276.6" cy="246" r="2.4" fill="#fff"/>
      <path d="M188 222 q18 -12 36 -4" fill="none" stroke="#241d18" stroke-width="8" stroke-linecap="round"/>
      <path d="M292 222 q-18 -12 -36 -4" fill="none" stroke="#241d18" stroke-width="8" stroke-linecap="round"/>
<ellipse cx="240" cy="318" rx="30" ry="24" fill="#3d201a"/>
      <path d="M214 310 q26 -12 52 0 l-4 8 q-22 -9 -44 0 Z" fill="#fff"/>
      <ellipse cx="240" cy="330" rx="14" ry="8" fill="#c4453a"/>
<path d="M160 262 q-6 74 32 96 q22 14 48 14 q26 0 48 -14 q38 -22 32 -96 q6 66 -22 100 q-24 30 -58 30 q-34 0 -58 -30 q-28 -34 -22 -100" fill="#3c2715"/>
      <path d="M170 286 q8 56 34 72 q18 12 36 12 q18 0 36 -12 q26 -16 34 -72 q2 64 -32 88 q-18 13 -38 13 q-20 0 -38 -13 q-34 -24 -32 -88" fill="#3c2715"/>
      <path d="M196 296 q22 -14 44 -2 q22 -12 44 2 q-8 16 -44 11 q-36 5 -44 -11" fill="#3c2715"/>
<path d="M196 172 q44 -22 88 0 q-16 -12 -30 -14 q30 -4 44 8 q-40 -30 -88 -8 q-8 4 -14 14" fill="#5b3a21" opacity=".35"/>
<path d="M156 214 q84 -30 168 0 l0 30 q-84 -26 -168 0 Z" fill="#c0392b"/>
  
  <path d="M156 214 q84 -30 168 0 l0 8 q-84 -28 -168 0 Z" fill="#fff" opacity=".22"/>

<path d="M330 500 q64 -30 60 -160" fill="none" stroke="#37424f" stroke-width="52" stroke-linecap="round"/>
    <path d="M330 500 q64 -30 60 -160" fill="none" stroke="#283039" stroke-width="52" stroke-linecap="round" opacity=".25"/>
    <circle cx="391" cy="336" r="24" fill="#f2c79c"/>
    <rect x="366" y="352" width="50" height="18" rx="9" fill="#f5efdd"/>
    <g transform="translate(392 216) rotate(8)">
    <rect x="-9" y="52" width="18" height="66" rx="9" fill="#c99a5b"/>
    <rect x="-9" y="52" width="9" height="66" rx="7" fill="#a87c42"/>
    <ellipse cx="0" cy="0" rx="56" ry="62" fill="#c0392b"/>
    <ellipse cx="0" cy="0" rx="56" ry="62" fill="none" stroke="#8e2a20" stroke-width="7"/>
    <ellipse cx="-16" cy="-16" rx="22" ry="26" fill="#fff" opacity=".18"/>
    <ellipse cx="0" cy="118" rx="16" ry="14" fill="#f2c79c"/>
    <path d="M-14 112 q14 -10 28 0" fill="none" stroke="#a98b6d" stroke-width="4"/>
  </g>
<g fill="#7fd4f2"><path d="M148 214 q8 12 0 20 q-8 -8 0 -20"/><path d="M132 246 q8 12 0 20 q-8 -8 0 -20"/><path d="M340 200 q8 12 0 20 q-8 -8 0 -20"/></g>
</svg>