<svg xmlns="http://www.w3.org/2000/svg" viewBox="0 0 480 640">
<defs>
    <radialGradient id="spot" cx="50%" cy="38%" r="75%"><stop offset="0%" stop-color="#5c1f4a"/><stop offset="100%" stop-color="#2e0e24"/></radialGradient>
  </defs>
  <rect width="480" height="640" fill="url(#spot)"/>
  <path d="M240 300 L936 227 L936 373 Z" fill="#ffffff" opacity=".14"/><path d="M240 300 L879 585 L806 711 Z" fill="#ffffff" opacity=".14"/><path d="M240 300 L651 866 L525 939 Z" fill="#ffffff" opacity=".14"/><path d="M240 300 L313 996 L167 996 Z" fill="#ffffff" opacity=".14"/><path d="M240 300 L-45 939 L-171 866 Z" fill="#ffffff" opacity=".14"/><path d="M240 300 L-326 711 L-399 585 Z" fill="#ffffff" opacity=".14"/><path d="M240 300 L-456 373 L-456 227 Z" fill="#ffffff" opacity=".14"/><path d="M240 300 L-399 15 L-326 -111 Z" fill="#ffffff" opacity=".14"/><path d="M240 300 L-171 -266 L-45 -339 Z" fill="#ffffff" opacity=".14"/><path d="M240 300 L167 -396 L313 -396 Z" fill="#ffffff" opacity=".14"/><path d="M240 300 L525 -339 L651 -266 Z" fill="#ffffff" opacity=".14"/><path d="M240 300 L806 -111 L879 15 Z" fill="#ffffff" opacity=".14"/>
  <rect width="480" height="640" fill="none" stroke="#e8d9a0" stroke-opacity=".35" stroke-width="10"/>
  <rect x="14" y="14" width="452" height="612" fill="none" stroke="#e8d9a0" stroke-opacity=".25" stroke-width="2"/>

  <path d="M96 640 C100 512 150 444 240 444 C330 444 380 512 384 640 Z" fill="#1f4f46"/>
  <path d="M96 640 C100 512 150 444 240 444 C246 444 240 452 240 452 C164 470 122 540 118 640 Z" fill="#163932" opacity=".55"/>
  
  <path d="M208 442 L272 442 L268 470 Q240 486 212 470 Z" fill="#dfa878"/>
  <rect x="214" y="404" width="52" height="52" rx="16" fill="#dfa878"/>
  <text x="240" y="600" text-anchor="middle" font-family="Arial Black, Arial, sans-serif" font-size="30" font-weight="900" fill="#f5efdd" opacity=".85" letter-spacing="4">LCG</text>


  <ellipse cx="162" cy="258" rx="15" ry="20" fill="#dfa878"/>
  <ellipse cx="318" cy="258" rx="15" ry="20" fill="#dfa878"/>
  <ellipse cx="240" cy="252" rx="82" ry="94" fill="#dfa878"/>
  <path d="M158 252 a82 94 0 0 0 82 94 a82 94 0 0 1 -82 -94" fill="#b78a62" opacity=".28"/>
  <ellipse cx="205" cy="290" rx="12" ry="8" fill="#e2574a" opacity=".22"/>
  <ellipse cx="275" cy="290" rx="12" ry="8" fill="#e2574a" opacity=".22"/>
<path d="M240 252 q10 22 0 30 q-7 6 -14 1" fill="none" stroke="#866548" stroke-width="5" stroke-linecap="round"/>
<ellipse cx="206" cy="246" rx="12" ry="14" fill="#fff"/><circle cx="208" cy="248" r="6.5" fill="#241d18"/><circle cx="210.4" cy="245.4" r="2.2" fill="#fff"/><ellipse cx="274" cy="246" rx="12" ry="14" fill="#fff"/><circle cx="276" cy="248" r="6.5" fill="#241d18"/><circle cx="278.4" cy="245.4" r="2.2" fill="#fff"/>
      <path d="M186 232 L228 224" stroke="#241d18" stroke-width="9" stroke-linecap="round"/>
      <path d="M294 232 L252 224" stroke="#241d18" stroke-width="9" stroke-linecap="round"/>
      <rect x="192" y="238" width="30" height="7" fill="#241d18" opacity=".9" transform="rotate(-8 207 241)"/>
      <rect x="258" y="238" width="30" height="7" fill="#241d18" opacity=".9" transform="rotate(8 273 241)"/>
<path d="M204 312 q28 22 72 -6" fill="none" stroke="#3d201a" stroke-width="8" stroke-linecap="round"/>
      <path d="M272 302 l10 -3" stroke="#3d201a" stroke-width="7" stroke-linecap="round"/>
<path d="M196 296 q22 -16 44 -2 q22 -14 44 2 q-8 18 -44 12 q-36 6 -44 -12" fill="#5b3a21"/>
<path d="M156 248 q-14 -100 84 -100 q98 0 84 100 q-4 -42 -22 -56 q4 20 -6 32 q-8 -30 -32 -38 q6 14 0 24 q-16 -26 -48 -24 q-32 2 -44 26 q-6 -10 -2 -22 q-18 10 -14 58" fill="#5b3a21"/>
<path d="M156 214 q84 -30 168 0 l0 30 q-84 -26 -168 0 Z" fill="#2fbf71"/>
  
  <path d="M156 214 q84 -30 168 0 l0 8 q-84 -28 -168 0 Z" fill="#fff" opacity=".22"/>
<circle cx="208" cy="248" r="24" fill="none" stroke="#caa74e" stroke-width="5"/>
    <circle cx="272" cy="248" r="24" fill="none" stroke="#caa74e" stroke-width="5"/>
    <path d="M232 246 h16" stroke="#caa74e" stroke-width="5"/>
<path d="M322 512 q40 -50 24 -170" fill="none" stroke="#1f4f46" stroke-width="50" stroke-linecap="round"/>
    <circle cx="346" cy="340" r="23" fill="#dfa878"/>
    <rect x="322" y="356" width="48" height="17" rx="8" fill="#f5efdd"/>
    <g transform="translate(342 226) rotate(-24)">
    <rect x="-9" y="52" width="18" height="66" rx="9" fill="#c99a5b"/>
    <rect x="-9" y="52" width="9" height="66" rx="7" fill="#a87c42"/>
    <ellipse cx="0" cy="0" rx="56" ry="62" fill="#c0392b"/>
    <ellipse cx="0" cy="0" rx="56" ry="62" fill="none" stroke="#8e2a20" stroke-width="7"/>
    <ellipse cx="-16" cy="-16" rx="22" ry="26" fill="#fff" opacity=".18"/>
    <ellipse cx="0" cy="118" rx="16" ry="14" fill="#dfa878"/>
    <path d="M-14 112 q14 -10 28 0" fill="none" stroke="#9c7654" stroke-width="4"/>
  </g>
<rect x="366" y="384" width="52" height="20" rx="10" fill="#2fbf71"/>
</svg>